# Blender v2.79 (sub 0) OBJ File: ''
# www.blender.org
mtllib bridge.mtl
o Cube.001_Cube.002
v -2.328881 0.016482 0.951468
v -2.328881 1.283831 0.951468
v -2.328881 0.016481 -0.951468
v -2.328881 1.283831 -0.951468
v 2.328881 0.016482 0.951468
v 2.328881 1.283831 0.951468
v 2.328881 0.016481 -0.951468
v 2.328881 1.283831 -0.951468
v 1.547839 0.016481 -0.951468
v -1.547839 0.016481 -0.951468
v -1.547839 1.283831 -0.951468
v 1.547839 1.283831 -0.951468
v -1.547839 0.016482 0.951468
v 1.547839 0.016482 0.951468
v 1.547839 1.283831 0.951468
v -1.547839 1.283831 0.951468
v 0.928704 0.617162 -0.951468
v 0.309568 0.911845 -0.951468
v -0.309568 0.911845 -0.951468
v -0.928704 0.617162 -0.951468
v -0.928704 1.366374 -0.951468
v -0.309568 1.413743 -0.951468
v 0.309568 1.413743 -0.951468
v 0.928704 1.366374 -0.951468
v -0.928704 0.617162 0.951468
v -0.309568 0.911845 0.951468
v 0.309568 0.911845 0.951468
v 0.928704 0.617162 0.951468
v 0.928704 1.366374 0.951468
v 0.309568 1.413743 0.951468
v -0.309568 1.413743 0.951468
v -0.928704 1.366374 0.951468
v -2.328881 0.016481 -0.730008
v -2.328881 0.016482 0.730009
v -2.328881 1.283831 0.730008
v -2.328881 1.283831 -0.730008
v 2.328881 0.016482 0.730009
v 2.328881 0.016481 -0.730008
v 2.328881 1.283831 -0.730008
v 2.328881 1.283831 0.730008
v 1.547839 1.283831 -0.730008
v 1.547839 1.283831 0.730008
v -1.547839 1.283831 -0.730008
v -1.547839 1.283831 0.730008
v -1.547839 0.016481 -0.730008
v -1.547839 0.016482 0.730009
v 1.547839 0.016481 -0.730008
v 1.547839 0.016482 0.730009
v -0.928704 0.617162 -0.730008
v -0.928704 0.617162 0.730008
v -0.309568 0.911845 -0.730008
v -0.309568 0.911845 0.730008
v 0.309568 0.911845 -0.730008
v 0.309568 0.911845 0.730008
v 0.928704 0.617162 -0.730008
v 0.928704 0.617162 0.730008
v 0.928704 1.366374 -0.730008
v 0.928704 1.366374 0.730008
v 0.309568 1.413743 -0.730008
v 0.309568 1.413743 0.730008
v -0.309568 1.413743 -0.730008
v -0.309568 1.413743 0.730008
v -0.928704 1.366374 -0.730008
v -0.928704 1.366374 0.730008
v -2.063279 1.543358 -0.730009
v -2.063279 1.543358 -0.951468
v 1.547839 1.543358 -0.951468
v 2.063279 1.543358 -0.951468
v 2.063279 1.543358 0.730008
v 2.063279 1.543358 0.951468
v -1.547839 1.543358 0.951468
v -2.063279 1.543358 0.951468
v -1.547839 1.543358 -0.951468
v 0.928704 1.625901 -0.951468
v 1.547839 1.543358 0.951468
v -0.928704 1.625901 0.951468
v 1.547839 1.543358 0.730008
v -1.547839 1.543358 0.730008
v -0.928704 1.625901 -0.951468
v -0.309568 1.673270 -0.951468
v 0.309568 1.673270 -0.951468
v 0.928704 1.625901 0.951468
v 0.309568 1.673270 0.951468
v -0.309568 1.673270 0.951468
v 0.928704 1.625901 0.730008
v 0.309568 1.673270 0.730008
v -0.309568 1.673270 0.730008
v -0.928704 1.625901 0.730008
v -2.063279 1.543358 0.730008
v 2.063279 1.543358 -0.730009
v 1.547839 1.543358 -0.730009
v -1.547839 1.543358 -0.730009
v 0.928704 1.625901 -0.730009
v 0.309568 1.673270 -0.730009
v -0.309568 1.673270 -0.730009
v -0.928704 1.625901 -0.730009
vt 0.369694 0.544803
vt 0.644855 0.496728
vt 0.644855 0.544803
vt 0.290273 0.152904
vt 0.014744 0.083633
vt 0.014744 0.152903
vt 0.644855 0.861748
vt 0.369694 0.909823
vt 0.369694 0.861748
vt 0.290273 0.427458
vt 0.014744 0.496728
vt 0.014744 0.427458
vt 0.922643 0.114106
vt 0.992016 0.066031
vt 0.992016 0.114106
vt 0.318516 0.262725
vt 0.364640 0.207814
vt 0.308218 0.207814
vt 0.835655 0.560025
vt 0.883801 0.504975
vt 0.883801 0.560025
vt 0.747034 0.575353
vt 0.690611 0.529639
vt 0.747034 0.506083
vt 0.398144 0.431051
vt 0.467517 0.479126
vt 0.398144 0.479126
vt 0.789392 0.431051
vt 0.922644 0.479126
vt 0.789392 0.479126
vt 0.290272 0.083633
vt 0.014744 0.152904
vt 0.014744 0.083633
vt 0.145335 0.372547
vt 0.290273 0.496728
vt 0.014744 0.427458
vt 0.014744 0.496728
vt 0.145335 0.207814
vt 0.290273 0.427458
vt 0.145335 0.372547
vt 0.308218 0.372547
vt 0.209401 0.317636
vt 0.318516 0.317636
vt 0.209401 0.262725
vt 0.290272 0.152904
vt 0.145335 0.207814
vt 0.308218 0.207814
vt 0.209401 0.262725
vt 0.318516 0.262725
vt 0.209401 0.317636
vt 0.308218 0.372547
vt 0.600769 0.431051
vt 0.467517 0.431051
vt 0.667584 0.431051
vt 0.600769 0.479126
vt 0.722577 0.479126
vt 0.667584 0.479126
vt 0.722577 0.431051
vt 0.374938 0.262725
vt 0.747034 0.849907
vt 0.690611 0.895621
vt 0.690611 0.849907
vt 0.364640 0.372547
vt 0.374938 0.317636
vt 0.729088 0.794996
vt 0.690611 0.849907
vt 0.672666 0.794996
vt 0.346695 0.427458
vt 0.332159 0.785641
vt 0.014744 0.730731
vt 0.332159 0.730731
vt 0.346695 0.427458
vt 0.014744 0.675820
vt 0.332159 0.675820
vt 0.729088 0.630264
vt 0.690611 0.575353
vt 0.014744 0.620909
vt 0.332159 0.620909
vt 0.346695 0.107189
vt 0.290273 0.083633
vt 0.014744 0.565998
vt 0.332159 0.565998
vt 0.789392 0.066031
vt 0.722577 0.114106
vt 0.722577 0.066031
vt 0.789392 0.114106
vt 0.667584 0.066031
vt 0.667584 0.114106
vt 0.600769 0.114106
vt 0.600769 0.066031
vt 0.467517 0.066031
vt 0.467517 0.114106
vt 0.922644 0.066031
vt 0.922644 0.114106
vt 0.398144 0.114106
vt 0.398144 0.066031
vt 0.729088 0.630264
vt 0.690611 0.575353
vt 0.747034 0.575353
vt 0.332159 0.840552
vt 0.014744 0.785641
vt 0.346695 0.107189
vt 0.346695 0.152904
vt 0.014744 0.496728
vt 0.332159 0.496728
vt 0.729088 0.794996
vt 0.672666 0.794996
vt 0.332159 0.909823
vt 0.014744 0.840552
vt 0.992016 0.479126
vt 0.922643 0.431051
vt 0.992016 0.431051
vt 0.644855 0.496728
vt 0.369694 0.544803
vt 0.369694 0.496728
vt 0.644855 0.544803
vt 0.369694 0.909823
vt 0.644855 0.861748
vt 0.644855 0.909823
vt 0.369694 0.861748
vt 0.835655 0.870958
vt 0.787508 0.825244
vt 0.835655 0.825244
vt 0.835655 0.504975
vt 0.787508 0.550689
vt 0.787508 0.504975
vt 0.787508 0.770333
vt 0.835655 0.770333
vt 0.835655 0.605600
vt 0.835655 0.550689
vt 0.787508 0.660511
vt 0.787508 0.605600
vt 0.835655 0.660511
vt 0.787508 0.715422
vt 0.835655 0.715422
vt 0.787508 0.605600
vt 0.835655 0.660511
vt 0.787508 0.660511
vt 0.787508 0.715422
vt 0.835655 0.715422
vt 0.835655 0.770333
vt 0.787508 0.770333
vt 0.835655 0.825244
vt 0.787508 0.825244
vt 0.835655 0.550689
vt 0.835655 0.605600
vt 0.835655 0.870958
vt 0.787508 0.870958
vt 0.787508 0.550689
vt 0.835655 0.504975
vt 0.835655 0.926008
vt 0.787508 0.870958
vt 0.690611 0.529639
vt 0.747034 0.506083
vt 0.747034 0.849907
vt 0.690611 0.895621
vt 0.346695 0.473172
vt 0.290273 0.496728
vt 0.718790 0.685174
vt 0.672666 0.630264
vt 0.787508 0.870958
vt 0.835655 0.926008
vt 0.787508 0.926008
vt 0.718790 0.740085
vt 0.662368 0.740085
vt 0.364640 0.207814
vt 0.718790 0.740085
vt 0.662368 0.685174
vt 0.346695 0.473172
vt 0.374938 0.262725
vt 0.662368 0.685174
vt 0.718790 0.685174
vt 0.346695 0.152904
vt 0.374938 0.317636
vt 0.318516 0.317636
vt 0.835655 0.560025
vt 0.883801 0.504975
vt 0.883801 0.560025
vt 0.662368 0.740085
vt 0.364640 0.372547
vt 0.672666 0.630264
vt 0.369694 0.496728
vt 0.644855 0.909823
vt 0.922644 0.066031
vt 0.922644 0.431051
vt 0.747034 0.919177
vt 0.014744 0.909823
vt 0.922643 0.479126
vt 0.787508 0.504975
vt 0.787508 0.926008
vt 0.747034 0.919177
vt 0.835655 0.870958
vn -1.0000 -0.0000 0.0000
vn 0.0000 -0.0000 -1.0000
vn 1.0000 -0.0000 0.0000
vn -0.0000 0.0000 1.0000
vn 0.0000 -1.0000 0.0000
vn 0.6989 0.7152 0.0000
vn -0.6963 -0.7177 0.0000
vn 0.6963 -0.7177 0.0000
vn 0.4298 -0.9029 0.0000
vn -0.4298 -0.9029 0.0000
vn -0.0763 0.9971 0.0000
vn 0.0000 1.0000 -0.0000
vn 0.0763 0.9971 0.0000
vn 0.1322 0.9912 -0.0000
vn 0.1321 0.9912 -0.0000
vn -0.1322 0.9912 -0.0000
vn -0.1321 0.9912 -0.0000
vn -0.6989 0.7152 0.0000
usemtl Material.003
s 1
f 36/1/1 3/2/1 33/3/1
f 12/4/2 7/5/2 9/6/2
f 40/7/3 5/8/3 37/9/3
f 16/10/4 1/11/4 13/12/4
f 37/13/5 14/14/5 48/15/5
f 23/16/2 74/17/2 24/18/2
f 40/19/6 70/20/6 6/21/6
f 42/22/2 69/23/2 40/24/2
f 34/25/5 13/26/5 1/27/5
f 56/28/7 14/29/7 28/30/7
f 6/31/4 14/32/4 5/33/4
f 25/34/4 16/10/4 13/12/4
f 4/35/2 10/36/2 3/37/2
f 17/38/2 12/4/2 9/6/2
f 11/39/2 20/40/2 10/36/2
f 21/41/2 19/42/2 20/40/2
f 22/43/2 18/44/2 19/42/2
f 18/44/2 24/18/2 17/38/2
f 15/45/4 28/46/4 14/32/4
f 29/47/4 27/48/4 28/46/4
f 30/49/4 26/50/4 27/48/4
f 26/50/4 32/51/4 25/34/4
f 50/52/8 13/26/8 46/53/8
f 52/54/9 25/55/9 50/52/9
f 52/54/5 27/56/5 26/57/5
f 56/28/10 27/56/10 54/58/10
f 22/43/2 81/59/2 23/16/2
f 41/60/4 90/61/4 91/62/4
f 22/43/2 79/63/2 80/64/2
f 64/65/2 78/66/2 88/67/2
f 32/51/4 71/68/4 16/10/4
f 63/69/11 62/70/11 61/71/11
f 21/41/2 73/72/2 79/63/2
f 61/71/12 60/73/12 59/74/12
f 58/75/2 77/76/2 42/22/2
f 59/74/13 58/77/13 57/78/13
f 12/4/2 68/79/2 8/80/2
f 57/78/14 42/81/15 41/82/14
f 17/83/10 53/84/10 18/85/10
f 55/86/10 54/58/10 53/84/10
f 19/87/5 53/84/5 51/88/5
f 53/84/5 52/54/5 51/88/5
f 19/87/9 49/89/9 20/90/9
f 51/88/9 50/52/9 49/89/9
f 10/91/8 49/89/8 45/92/8
f 49/89/8 46/53/8 45/92/8
f 9/93/7 55/86/7 17/83/7
f 47/94/7 56/28/7 55/86/7
f 10/91/5 33/95/5 3/96/5
f 45/92/5 34/25/5 33/95/5
f 63/97/4 92/98/4 43/99/4
f 43/100/16 64/101/17 63/69/16
f 15/45/4 70/102/4 75/103/4
f 41/82/12 40/104/12 39/105/12
f 57/106/4 91/62/4 93/107/4
f 36/108/12 44/109/12 43/100/12
f 9/110/5 38/111/5 47/112/5
f 38/111/5 48/15/5 47/112/5
f 8/113/3 38/114/3 7/115/3
f 39/116/3 37/9/3 38/114/3
f 2/117/1 34/118/1 1/119/1
f 35/120/1 33/3/1 34/118/1
f 89/121/12 71/122/12 78/123/12
f 69/124/12 75/125/12 70/126/12
f 78/123/16 76/127/16 88/128/16
f 85/129/14 75/125/14 77/130/14
f 85/129/13 83/131/13 82/132/13
f 86/133/12 84/134/12 83/131/12
f 88/128/11 84/134/11 87/135/11
f 79/136/11 95/137/11 80/138/11
f 81/139/12 95/137/12 94/140/12
f 81/139/13 93/141/13 74/142/13
f 74/142/14 91/143/14 67/144/14
f 79/136/16 92/145/16 96/146/16
f 67/144/12 90/147/12 68/148/12
f 73/149/12 65/150/12 92/145/12
f 35/151/18 72/152/18 89/121/18
f 43/99/4 65/153/4 36/154/4
f 44/155/2 89/156/2 78/66/2
f 16/10/4 72/157/4 2/158/4
f 61/159/4 96/160/4 63/97/4
f 39/161/6 68/162/6 90/163/6
f 62/164/2 88/67/2 87/165/2
f 29/47/4 75/103/4 82/166/4
f 59/167/4 95/168/4 61/159/4
f 11/39/2 66/169/2 73/72/2
f 30/49/4 82/166/4 83/170/4
f 62/164/2 86/171/2 60/172/2
f 24/18/2 67/173/2 12/4/2
f 30/49/4 84/174/4 31/175/4
f 36/176/18 66/177/18 4/178/18
f 59/167/4 93/107/4 94/179/4
f 31/175/4 76/180/4 32/51/4
f 60/172/2 85/181/2 58/75/2
f 36/1/1 4/182/1 3/2/1
f 12/4/2 8/80/2 7/5/2
f 40/7/3 6/183/3 5/8/3
f 16/10/4 2/158/4 1/11/4
f 37/13/5 5/184/5 14/14/5
f 23/16/2 81/59/2 74/17/2
f 40/19/6 69/124/6 70/20/6
f 42/22/2 77/76/2 69/23/2
f 34/25/5 46/53/5 13/26/5
f 56/28/7 48/185/7 14/29/7
f 6/31/4 15/45/4 14/32/4
f 25/34/4 32/51/4 16/10/4
f 4/35/2 11/39/2 10/36/2
f 17/38/2 24/18/2 12/4/2
f 11/39/2 21/41/2 20/40/2
f 21/41/2 22/43/2 19/42/2
f 22/43/2 23/16/2 18/44/2
f 18/44/2 23/16/2 24/18/2
f 15/45/4 29/47/4 28/46/4
f 29/47/4 30/49/4 27/48/4
f 30/49/4 31/175/4 26/50/4
f 26/50/4 31/175/4 32/51/4
f 50/52/8 25/55/8 13/26/8
f 52/54/9 26/57/9 25/55/9
f 52/54/5 54/58/5 27/56/5
f 56/28/10 28/30/10 27/56/10
f 22/43/2 80/64/2 81/59/2
f 41/60/4 39/186/4 90/61/4
f 22/43/2 21/41/2 79/63/2
f 64/65/2 44/155/2 78/66/2
f 32/51/4 76/180/4 71/68/4
f 63/69/11 64/101/11 62/70/11
f 21/41/2 11/39/2 73/72/2
f 61/71/12 62/70/12 60/73/12
f 58/75/2 85/181/2 77/76/2
f 59/74/13 60/73/13 58/77/13
f 12/4/2 67/173/2 68/79/2
f 57/78/14 58/77/15 42/81/15
f 17/83/10 55/86/10 53/84/10
f 55/86/10 56/28/10 54/58/10
f 19/87/5 18/85/5 53/84/5
f 53/84/5 54/58/5 52/54/5
f 19/87/9 51/88/9 49/89/9
f 51/88/9 52/54/9 50/52/9
f 10/91/8 20/90/8 49/89/8
f 49/89/8 50/52/8 46/53/8
f 9/93/7 47/94/7 55/86/7
f 47/94/7 48/185/7 56/28/7
f 10/91/5 45/92/5 33/95/5
f 45/92/5 46/53/5 34/25/5
f 63/97/4 96/160/4 92/98/4
f 43/100/16 44/109/17 64/101/17
f 15/45/4 6/31/4 70/102/4
f 41/82/12 42/81/12 40/104/12
f 57/106/4 41/60/4 91/62/4
f 36/108/12 35/187/12 44/109/12
f 9/110/5 7/188/5 38/111/5
f 38/111/5 37/13/5 48/15/5
f 8/113/3 39/116/3 38/114/3
f 39/116/3 40/7/3 37/9/3
f 2/117/1 35/120/1 34/118/1
f 35/120/1 36/1/1 33/3/1
f 89/121/12 72/152/12 71/122/12
f 69/124/12 77/130/12 75/125/12
f 78/123/16 71/122/16 76/127/16
f 85/129/14 82/132/14 75/125/14
f 85/129/13 86/133/13 83/131/13
f 86/133/12 87/135/12 84/134/12
f 88/128/11 76/127/11 84/134/11
f 79/136/11 96/146/11 95/137/11
f 81/139/12 80/138/12 95/137/12
f 81/139/13 94/140/13 93/141/13
f 74/142/14 93/141/14 91/143/14
f 79/136/16 73/149/16 92/145/16
f 67/144/12 91/143/12 90/147/12
f 73/149/12 66/189/12 65/150/12
f 35/151/18 2/190/18 72/152/18
f 43/99/4 92/98/4 65/153/4
f 44/155/2 35/191/2 89/156/2
f 16/10/4 71/68/4 72/157/4
f 61/159/4 95/168/4 96/160/4
f 39/161/6 8/192/6 68/162/6
f 62/164/2 64/65/2 88/67/2
f 29/47/4 15/45/4 75/103/4
f 59/167/4 94/179/4 95/168/4
f 11/39/2 4/35/2 66/169/2
f 30/49/4 29/47/4 82/166/4
f 62/164/2 87/165/2 86/171/2
f 24/18/2 74/17/2 67/173/2
f 30/49/4 83/170/4 84/174/4
f 36/176/18 65/150/18 66/177/18
f 59/167/4 57/106/4 93/107/4
f 31/175/4 84/174/4 76/180/4
f 60/172/2 86/171/2 85/181/2
