# Blender v2.79 (sub 0) OBJ File: ''
# www.blender.org
mtllib finish_line.mtl
o Plane
v 0.036731 1.447772 -0.000000
v 0.185018 1.453752 -0.000000
v 0.036731 1.773203 0.000000
v 0.185018 1.779182 0.000000
v 0.455026 1.476740 -0.000000
v 0.455026 1.802171 0.000000
v 0.788247 1.543183 -0.000000
v 0.788247 1.868613 0.000000
v 1.003641 1.651254 -0.000000
v 1.003641 1.976684 0.000000
v -0.114134 1.453752 -0.000000
v -0.114134 1.779182 0.000000
v -0.389069 1.476740 -0.000000
v -0.389069 1.802171 0.000000
v -0.728369 1.543183 -0.000000
v -0.728369 1.868613 0.000000
v -0.947693 1.651254 -0.000000
v -0.947693 1.976684 0.000000
v 1.019472 -0.000000 -0.037051
v 1.019472 2.000000 -0.037051
v 1.055409 -0.000000 0.018525
v 1.055409 2.000000 0.018525
v 0.983536 -0.000000 0.018525
v 0.983536 2.000000 0.018525
v -0.940703 -0.000000 -0.037051
v -0.940703 2.000000 -0.037051
v -0.904766 -0.000000 0.018525
v -0.904766 2.000000 0.018525
v -0.976639 -0.000000 0.018525
v -0.976639 2.000000 0.018525
vt 0.661275 0.498085
vt 0.257313 0.432879
vt 0.668837 0.432879
vt 0.249752 0.498085
vt 0.632205 0.616815
vt 0.220682 0.616815
vt 0.548185 0.763341
vt 0.136662 0.763341
vt 0.411523 0.858056
vt 0.000000 0.858056
vt 0.661275 0.366539
vt 0.249752 0.366539
vt 0.632205 0.245643
vt 0.220682 0.245643
vt 0.548185 0.096443
vt 0.136662 0.096443
vt 0.411523 0.000000
vt 0.758899 0.018039
vt 0.681851 0.981961
vt 0.758899 0.981959
vt 0.681851 0.018039
vt 0.758899 0.981961
vt 0.135919 0.499959
vt 0.075302 0.416193
vt 0.135919 0.332427
vt 0.681851 0.018039
vt 0.681851 0.981960
vt 0.075302 0.416193
vt 0.135919 0.332427
vt 0.135919 0.499959
vt 0.758899 0.018039
vt 0.681851 0.981961
vt 0.758899 0.981959
vt 0.681851 0.018039
vt 0.758899 0.981961
vt 0.135919 0.499959
vt 0.075302 0.416193
vt 0.135919 0.332427
vt 0.681851 0.018039
vt 0.681851 0.981960
vt 0.075302 0.416193
vt 0.135919 0.332427
vt 0.135919 0.499959
vt 0.000000 0.000000
vt 0.758899 0.018039
vt 0.758899 0.018039
vn 0.0000 -0.0000 1.0000
vn 0.8397 0.0000 -0.5430
vn 0.0000 1.0000 0.0000
vn -0.8397 -0.0000 -0.5430
vn 0.0000 -1.0000 0.0000
usemtl Material.005
s 1
f 2/1/1 3/2/1 1/3/1
f 4/4/1 5/5/1 6/6/1
f 6/6/1 7/7/1 8/8/1
f 8/8/1 9/9/1 10/10/1
f 3/2/1 11/11/1 1/3/1
f 12/12/1 13/13/1 11/11/1
f 14/14/1 15/15/1 13/13/1
f 16/16/1 17/17/1 15/15/1
f 20/18/2 21/19/2 19/20/2
f 22/21/1 23/22/1 21/19/1
f 22/23/3 20/24/3 24/25/3
f 24/26/4 19/20/4 23/27/4
f 19/28/5 21/29/5 23/30/5
f 26/31/2 27/32/2 25/33/2
f 28/34/1 29/35/1 27/32/1
f 28/36/3 26/37/3 30/38/3
f 30/39/4 25/33/4 29/40/4
f 25/41/5 27/42/5 29/43/5
f 2/1/1 4/4/1 3/2/1
f 4/4/1 2/1/1 5/5/1
f 6/6/1 5/5/1 7/7/1
f 8/8/1 7/7/1 9/9/1
f 3/2/1 12/12/1 11/11/1
f 12/12/1 14/14/1 13/13/1
f 14/14/1 16/16/1 15/15/1
f 16/16/1 18/44/1 17/17/1
f 20/18/2 22/21/2 21/19/2
f 22/21/1 24/45/1 23/22/1
f 24/26/4 20/18/4 19/20/4
f 26/31/2 28/34/2 27/32/2
f 28/34/1 30/46/1 29/35/1
f 30/39/4 26/31/4 25/33/4
