# Blender v2.79 (sub 0) OBJ File: ''
# www.blender.org
mtllib large_house.mtl
o Cube.001_Cube.006
v -4.437970 7.400310 23.453386
v 0.000000 9.795037 23.453386
v -4.437970 7.400308 -23.453386
v 0.000000 9.795035 -23.453386
v 4.437970 7.400310 23.453386
v 4.437970 7.400308 -23.453386
v -3.635833 -0.450614 22.168652
v -3.635833 7.306650 22.168652
v -3.635833 -0.450616 -22.168652
v -3.635833 7.306648 -22.168652
v 3.635833 -0.450614 22.168652
v 3.635833 7.306650 22.168652
v 3.635833 -0.450616 -22.168652
v 3.635833 7.306648 -22.168652
v 11.392767 9.520872 8.451476
v 11.392767 13.037912 0.179036
v -11.449944 9.520872 8.451478
v -11.449944 13.037912 0.179037
v 11.392767 9.520871 -8.093403
v -11.449944 9.520871 -8.093402
v 10.767125 -0.374684 6.956282
v 10.767125 9.657153 6.956282
v -10.824303 -0.374684 6.956284
v -10.824303 9.657153 6.956283
v 10.767125 -0.374684 -6.598208
v 10.767125 9.657153 -6.598209
v -10.824303 -0.374684 -6.598207
v -10.824303 9.657153 -6.598207
vt 0.960811 0.087681
vt 0.891251 0.852103
vt 0.891252 0.087681
vt 0.413526 0.598850
vt 0.375992 0.526526
vt 0.413526 0.454202
vt 0.891252 0.852103
vt 0.960811 0.087681
vt 0.960811 0.852103
vt 0.413526 0.598850
vt 0.375992 0.526526
vt 0.413526 0.454202
vt 0.163543 0.081943
vt 0.024424 0.846364
vt 0.024424 0.081943
vt 0.452638 0.801622
vt 0.574223 0.079074
vt 0.574223 0.801622
vt 0.218483 0.811141
vt 0.332457 0.937558
vt 0.218483 0.937558
vt 0.574223 0.079074
vt 0.452638 0.801622
vt 0.452638 0.079074
vt 0.218483 0.811141
vt 0.332457 0.937558
vt 0.218483 0.937558
vt 0.701754 0.079074
vt 0.587780 0.801622
vt 0.587780 0.079074
vt 0.550306 0.619728
vt 0.648062 0.000000
vt 0.648062 0.619728
vt 0.459954 0.939089
vt 0.832213 0.809429
vt 0.832213 0.939089
vt 0.438512 0.884759
vt 0.383387 0.749946
vt 0.438512 0.615133
vt 0.832213 0.809429
vt 0.459954 0.939089
vt 0.459954 0.809429
vt 0.438512 0.884759
vt 0.383387 0.749946
vt 0.438512 0.615133
vt 0.163543 0.454202
vt 0.422862 0.081943
vt 0.422863 0.454202
vt 0.858990 0.430941
vt 0.701754 0.782808
vt 0.701754 0.430941
vt 0.723009 0.358447
vt 0.880244 0.137555
vt 0.880244 0.358447
vt 0.858989 0.430941
vt 0.701754 0.782808
vt 0.701754 0.430941
vt 0.723009 0.358447
vt 0.880244 0.137555
vt 0.880244 0.358447
vt 0.163543 0.806069
vt 0.375992 0.454202
vt 0.375992 0.806069
vt 0.341740 0.921524
vt 0.523957 0.619728
vt 0.523957 0.921524
vt 0.960811 0.852103
vt 0.891252 0.087681
vt 0.163543 0.846364
vt 0.452638 0.079074
vt 0.332457 0.811141
vt 0.574223 0.801622
vt 0.332457 0.811141
vt 0.701754 0.801622
vt 0.550306 0.000000
vt 0.459954 0.809429
vt 0.832213 0.939089
vt 0.163543 0.081943
vt 0.858990 0.782808
vt 0.723009 0.137555
vt 0.858990 0.782808
vt 0.723009 0.137555
vt 0.163543 0.454202
vt 0.341740 0.619728
vn -0.4749 0.8801 -0.0000
vn 0.0000 0.0000 -1.0000
vn 0.4749 0.8801 -0.0000
vn 0.0000 0.0000 1.0000
vn 0.0000 -1.0000 0.0000
vn -1.0000 0.0000 0.0000
vn 1.0000 0.0000 0.0000
vn 0.0000 1.0000 -0.0000
vn 0.0000 0.9203 0.3913
vn -0.0000 0.9203 -0.3913
usemtl Material.006
s 1
f 2/1/1 3/2/1 1/3/1
f 3/4/2 4/5/2 6/6/2
f 4/7/3 5/8/3 6/9/3
f 5/10/4 2/11/4 1/12/4
f 6/13/5 1/14/5 3/15/5
f 8/16/6 9/17/6 7/18/6
f 10/19/2 13/20/2 9/21/2
f 14/22/7 11/23/7 13/24/7
f 12/25/4 7/26/4 11/27/4
f 13/28/5 7/29/5 9/30/5
f 10/31/8 12/32/8 14/33/8
f 15/34/9 18/35/9 17/36/9
f 17/37/6 18/38/6 20/39/6
f 20/40/10 16/41/10 19/42/10
f 19/43/7 16/44/7 15/45/7
f 20/46/5 15/47/5 17/48/5
f 22/49/4 23/50/4 21/51/4
f 24/52/6 27/53/6 23/54/6
f 28/55/2 25/56/2 27/57/2
f 26/58/7 21/59/7 25/60/7
f 27/61/5 21/62/5 23/63/5
f 24/64/8 26/65/8 28/66/8
f 2/1/1 4/67/1 3/2/1
f 4/7/3 2/68/3 5/8/3
f 6/13/5 5/69/5 1/14/5
f 8/16/6 10/70/6 9/17/6
f 10/19/2 14/71/2 13/20/2
f 14/22/7 12/72/7 11/23/7
f 12/25/4 8/73/4 7/26/4
f 13/28/5 11/74/5 7/29/5
f 10/31/8 8/75/8 12/32/8
f 15/34/9 16/76/9 18/35/9
f 20/40/10 18/77/10 16/41/10
f 20/46/5 19/78/5 15/47/5
f 22/49/4 24/79/4 23/50/4
f 24/52/6 28/80/6 27/53/6
f 28/55/2 26/81/2 25/56/2
f 26/58/7 22/82/7 21/59/7
f 27/61/5 25/83/5 21/62/5
f 24/64/8 22/84/8 26/65/8
