# Blender v2.79 (sub 0) OBJ File: ''
# www.blender.org
mtllib small_house.mtl
o Plane_Plane.001
v -2.098666 2.553693 2.973575
v 2.098666 2.553693 2.973575
v -2.098666 2.553692 -2.973575
v 2.098666 2.553692 -2.973575
v 0.000000 3.918928 1.496626
v 0.000000 3.918928 -1.496626
v 1.856185 -0.096203 2.767500
v 1.856185 -0.096204 -2.767500
v -1.856185 -0.096204 -2.767500
v -1.856184 -0.096203 2.767501
v 1.856186 2.668417 2.767499
v 1.856184 2.668417 -2.767502
v -1.856186 2.668417 -2.767499
v -1.856185 2.668417 2.767500
vn 0.0000 -1.0000 0.0000
vn 0.0000 0.7343 -0.6788
vn 0.0000 0.7343 0.6788
vn 0.5453 0.8382 -0.0000
vn -0.5453 0.8382 -0.0000
vn -0.0000 1.0000 -0.0000
vn -1.0000 0.0000 0.0000
vn 0.0000 0.0000 1.0000
vn 1.0000 0.0000 -0.0000
vn -0.0000 -0.0000 -1.0000
usemtl Material.009
s 1
f 3//1 2//1 1//1
f 4//2 3//2 6//2
f 1//3 2//3 5//3
f 4//4 5//4 2//4
f 1//5 6//5 3//5
f 7//6 9//6 10//6
f 14//1 12//1 11//1
f 11//7 8//7 7//7
f 12//8 9//8 8//8
f 13//9 10//9 9//9
f 7//10 14//10 11//10
f 3//1 4//1 2//1
f 4//4 6//4 5//4
f 1//5 5//5 6//5
f 7//6 8//6 9//6
f 14//1 13//1 12//1
f 11//7 12//7 8//7
f 12//8 13//8 9//8
f 13//9 14//9 10//9
f 7//10 10//10 14//10
