# Blender v2.79 (sub 0) OBJ File: 'stone.blend'
# www.blender.org
mtllib stone.mtl
o Icosphere_Icosphere.004
v 0.000000 -0.042459 0.000000
v 0.167996 0.046662 0.109654
v -0.103190 0.013470 0.166765
v -0.238129 -0.038177 0.000802
v 0.063448 -0.024442 -0.281076
v 0.225292 0.057019 -0.159676
v -0.038285 0.225525 0.135092
v -0.223356 0.118091 0.007215
v -0.186126 0.140835 -0.286361
v 0.095744 0.142661 -0.276800
v 0.171988 0.215552 0.089027
v -0.016198 0.281024 -0.038199
vt 0.248224 0.206161
vt 0.000000 0.262908
vt 0.170764 0.000000
vt 0.178245 0.513471
vt 0.429224 0.014486
vt 0.429224 0.470977
vt 0.199825 0.526612
vt 0.125492 0.823093
vt 0.000000 0.513471
vt 0.449654 0.599809
vt 0.513329 0.433841
vt 0.703599 0.542300
vt 0.429224 0.841132
vt 0.607197 0.800382
vt 1.000000 0.420611
vt 1.000000 0.877163
vt 0.712517 0.611980
vt 0.199825 0.932587
vt 0.006335 0.899812
vt 0.712517 0.420611
vt 0.712517 1.000000
vt 0.292088 0.513471
vt 0.292088 0.844404
vt 0.199825 0.585598
vt 0.429224 0.232489
vt 0.484424 0.000000
vt 0.644066 0.214027
vt 0.525637 0.420611
vt 0.863188 0.380274
vt 0.863188 0.071189
vn 0.1967 -0.8864 0.4190
vn 0.4377 -0.8972 0.0586
vn -0.0161 -0.9509 0.3090
vn -0.0182 -0.9975 -0.0680
vn 0.4262 -0.9038 0.0383
vn 0.9781 0.0023 0.2082
vn 0.1952 0.0862 0.9770
vn -0.7823 0.0485 0.6210
vn -0.4611 -0.7131 -0.5281
vn 0.6292 -0.1019 -0.7705
vn 0.2177 0.1132 0.9694
vn -0.6546 0.3038 0.6922
vn -0.9882 0.0982 -0.1177
vn 0.0338 0.0190 -0.9992
vn 0.6915 0.6671 -0.2770
vn 0.1139 0.9418 0.3162
vn -0.5836 0.7920 0.1793
vn -0.6205 0.7840 -0.0180
vn 0.0113 0.8673 -0.4977
vn 0.4722 0.8405 -0.2659
usemtl None
s off
f 1/1/1 2/2/1 3/3/1
f 2/2/2 1/1/2 6/4/2
f 1/1/3 3/3/3 4/5/3
f 1/1/4 4/5/4 5/6/4
f 1/1/5 5/6/5 6/4/5
f 2/7/6 6/8/6 11/9/6
f 3/10/7 2/11/7 7/12/7
f 4/13/8 3/10/8 8/14/8
f 5/15/9 4/16/9 9/17/9
f 6/8/10 5/18/10 10/19/10
f 2/11/11 11/20/11 7/12/11
f 3/10/12 7/12/12 8/14/12
f 4/13/13 8/14/13 9/21/13
f 5/22/14 9/23/14 10/24/14
f 6/8/15 10/19/15 11/9/15
f 7/25/16 11/26/16 12/27/16
f 8/28/17 7/25/17 12/27/17
f 9/29/18 8/28/18 12/27/18
f 10/30/19 9/29/19 12/27/19
f 11/26/20 10/30/20 12/27/20
