# Blender v2.79 (sub 0) OBJ File: ''
# www.blender.org
mtllib stone.mtl
o Icosphere_Icosphere.001
v 0.000000 -0.042459 0.000000
v 0.167996 0.046662 0.109654
v -0.103190 0.013470 0.166765
v -0.238129 -0.038177 0.000802
v 0.063448 -0.024442 -0.281076
v 0.225292 0.057019 -0.159676
v -0.038285 0.225525 0.135092
v -0.223356 0.118091 0.007215
v -0.186126 0.140835 -0.286361
v 0.095744 0.142661 -0.276800
v 0.171988 0.215552 0.089027
v -0.016198 0.281024 -0.038199
vn 0.1967 -0.8864 0.4190
vn 0.4377 -0.8972 0.0586
vn -0.0161 -0.9509 0.3090
vn -0.0182 -0.9975 -0.0680
vn 0.4262 -0.9038 0.0383
vn 0.9781 0.0023 0.2082
vn 0.1952 0.0862 0.9770
vn -0.7823 0.0485 0.6210
vn -0.4611 -0.7131 -0.5281
vn 0.6292 -0.1019 -0.7705
vn 0.2177 0.1132 0.9694
vn -0.6546 0.3038 0.6922
vn -0.9882 0.0982 -0.1177
vn 0.0338 0.0190 -0.9992
vn 0.6915 0.6671 -0.2770
vn 0.1139 0.9418 0.3162
vn -0.5836 0.7920 0.1793
vn -0.6205 0.7840 -0.0180
vn 0.0113 0.8673 -0.4977
vn 0.4722 0.8405 -0.2659
usemtl None
s 1
f 1//1 2//1 3//1
f 2//2 1//2 6//2
f 1//3 3//3 4//3
f 1//4 4//4 5//4
f 1//5 5//5 6//5
f 2//6 6//6 11//6
f 3//7 2//7 7//7
f 4//8 3//8 8//8
f 5//9 4//9 9//9
f 6//10 5//10 10//10
f 2//11 11//11 7//11
f 3//12 7//12 8//12
f 4//13 8//13 9//13
f 5//14 9//14 10//14
f 6//15 10//15 11//15
f 7//16 11//16 12//16
f 8//17 7//17 12//17
f 9//18 8//18 12//18
f 10//19 9//19 12//19
f 11//20 10//20 12//20
