# Blender v2.79 (sub 0) OBJ File: ''
# www.blender.org
mtllib street_lamp.mtl
o Cube_Cube.005
v -0.093603 1.883754 0.093603
v -0.093603 1.883754 -0.093603
v 0.093603 1.883754 0.093603
v 0.093603 1.883754 -0.093603
v 0.046859 1.799050 -0.046859
v 0.046859 -0.027728 -0.046858
v 0.046859 1.799050 0.046858
v 0.046859 -0.027728 0.046859
v -0.046859 1.799050 -0.046859
v -0.046859 -0.027728 -0.046858
v -0.046859 1.799050 0.046858
v -0.046859 -0.027728 0.046859
v -0.131210 2.102340 0.131210
v -0.131210 2.102340 -0.131210
v 0.131210 2.102340 0.131210
v 0.131210 2.102340 -0.131210
v -0.041936 2.206403 0.041936
v -0.041936 2.206403 -0.041936
v 0.041936 2.206403 0.041936
v 0.041936 2.206403 -0.041936
v 0.000000 2.356466 -0.000000
vt 0.432182 0.624509
vt 0.345755 0.677499
vt 0.460943 0.677500
vt 0.734376 0.068158
vt 0.676712 0.048965
vt 0.734376 0.048965
vt 0.374519 0.624505
vt 0.432169 0.021313
vt 0.374653 0.021310
vt 0.432182 0.624508
vt 0.345755 0.677494
vt 0.460941 0.677500
vt 0.460941 0.677500
vt 0.432179 0.624510
vt 0.345753 0.677500
vt 0.374515 0.624510
vt 0.432180 0.021315
vt 0.374516 0.021315
vt 0.374542 0.624501
vt 0.432169 0.021313
vt 0.374516 0.021315
vt 0.375186 0.021315
vt 0.432839 0.021314
vt 0.484071 0.812218
vt 0.327177 0.812214
vt 0.429150 0.878806
vt 0.484081 0.812217
vt 0.327177 0.812214
vt 0.484071 0.812218
vt 0.429138 0.878805
vt 0.377535 0.878802
vt 0.403331 0.971535
vt 0.327177 0.812214
vt 0.429138 0.878805
vt 0.377535 0.878802
vt 0.403364 0.971541
vt 0.377543 0.878806
vt 0.429139 0.878805
vt 0.676712 0.068158
vn 0.0000 -0.4832 0.8755
vn 0.0000 -1.0000 0.0000
vn 1.0000 0.0000 0.0000
vn 0.8755 -0.4832 0.0000
vn 0.0000 -0.4832 -0.8755
vn -0.8755 -0.4832 0.0000
vn -1.0000 0.0000 0.0000
vn 0.0000 0.0000 1.0000
vn 0.0000 -0.0000 -1.0000
vn 0.0000 -0.1696 0.9855
vn -0.7590 0.6511 0.0000
vn -0.9855 -0.1696 0.0000
vn 0.0000 -0.1696 -0.9855
vn 0.9855 -0.1696 0.0000
vn 0.9631 0.2691 0.0000
vn 0.0000 0.6511 -0.7590
vn 0.7590 0.6511 0.0000
vn 0.0000 0.6511 0.7590
vn 0.0000 0.2691 0.9631
vn -0.9631 0.2691 0.0000
vn 0.0000 0.2691 -0.9631
usemtl Material.010
s 1
f 11/1/1 3/2/1 1/3/1
f 6/4/2 12/5/2 10/6/2
f 5/7/3 8/8/3 6/9/3
f 7/10/4 4/11/4 3/12/4
f 5/7/5 2/13/5 4/11/5
f 9/14/6 1/15/6 2/13/6
f 11/16/7 10/17/7 12/18/7
f 7/19/8 12/20/8 8/21/8
f 9/14/9 6/22/9 10/23/9
f 3/2/10 13/24/10 1/3/10
f 13/25/11 18/26/11 14/27/11
f 1/15/12 14/27/12 2/13/12
f 2/13/13 16/28/13 4/11/13
f 4/11/14 15/29/14 3/12/14
f 19/30/15 20/31/15 21/32/15
f 14/27/16 20/31/16 16/28/16
f 16/28/17 19/30/17 15/29/17
f 15/33/18 17/34/18 13/24/18
f 17/34/19 19/35/19 21/36/19
f 18/26/20 17/37/20 21/32/20
f 20/31/21 18/38/21 21/36/21
f 11/1/1 7/19/1 3/2/1
f 6/4/2 8/39/2 12/5/2
f 5/7/3 7/10/3 8/8/3
f 7/10/4 5/7/4 4/11/4
f 5/7/5 9/14/5 2/13/5
f 9/14/6 11/16/6 1/15/6
f 11/16/7 9/14/7 10/17/7
f 7/19/8 11/1/8 12/20/8
f 9/14/9 5/7/9 6/22/9
f 3/2/10 15/33/10 13/24/10
f 13/25/11 17/37/11 18/26/11
f 1/15/12 13/25/12 14/27/12
f 2/13/13 14/27/13 16/28/13
f 4/11/14 16/28/14 15/29/14
f 14/27/16 18/38/16 20/31/16
f 16/28/17 20/31/17 19/30/17
f 15/33/18 19/35/18 17/34/18
