# Blender v2.79 (sub 0) OBJ File: ''
# www.blender.org
mtllib tree_without_leaves.mtl
o Cylinder.006
v 0.224657 7.647661 -1.073703
v -0.523096 8.426721 -1.015715
v 0.082475 6.983730 -0.353803
v -0.973750 7.897086 -0.523865
v 0.074408 6.800887 -1.221437
v -1.022253 7.768710 -1.223999
v -1.591755 9.567030 -0.917938
v -1.853345 9.259594 -0.632435
v -1.881500 9.185077 -1.038841
v -2.427789 10.361593 -1.320758
v -2.608645 10.149042 -1.123369
v -2.628110 10.097522 -1.404346
v -3.386713 10.763926 -1.110784
v -3.465125 10.671771 -1.025203
v -3.473565 10.649434 -1.147025
v 0.755947 4.757536 -0.129890
v 0.552551 4.855062 -1.520062
v -0.452686 4.829980 -0.061131
v -0.397537 4.912009 -1.466012
v 0.082427 3.752600 -0.215005
v 0.023107 4.065098 -1.586971
v 0.537549 5.394525 -2.943179
v -0.013947 5.427581 -2.911805
v 0.230224 4.935976 -2.982017
v 0.827420 5.239933 -4.108596
v 0.446132 5.262786 -4.086905
v 0.614945 4.922905 -4.135448
v 0.350233 5.453524 -5.017712
v 0.184920 5.463432 -5.008307
v 0.258111 5.316072 -5.029353
v 0.000001 0.000000 -1.000000
v 0.000001 3.646610 -1.000000
v 0.866027 -0.000000 0.500000
v 0.866026 3.646610 0.500000
v -0.866024 -0.000001 0.500000
v -0.866025 3.646609 0.500000
v -0.006102 7.467065 -1.498266
v 0.739812 7.867848 -0.590614
v -0.492074 7.900556 -0.441496
v 0.736533 10.337158 -0.048243
v 1.186224 10.578779 0.498956
v 0.443554 10.598497 0.588855
v 0.797027 12.191195 -0.059830
v 0.904861 12.249134 0.071386
v 0.726772 12.253862 0.092944
v -0.300835 4.834766 -0.672288
v -1.064026 5.582128 0.660844
v 0.850770 4.704428 0.233665
v -0.158767 5.479670 1.372999
v -0.193039 3.668030 0.217115
v -0.979290 4.664973 1.359990
v -1.828893 6.860672 1.751052
v -1.303420 6.801198 2.164435
v -1.779706 6.328293 2.156884
v -2.977957 7.293861 2.556711
v -2.614660 7.252743 2.842513
v -2.943951 6.925791 2.837292
v -3.107818 7.897481 3.668887
v -2.950305 7.879653 3.792799
v -3.093074 7.737898 3.790536
v 0.717944 10.689436 0.126320
v 0.988027 11.051085 0.623444
v 1.099588 10.380515 0.202098
v 1.288032 10.808247 0.683013
v 0.765213 10.305636 0.438233
v 1.025185 10.749386 0.868635
v 1.280659 11.573919 1.018994
v 1.454802 11.432961 1.053571
v 1.302228 11.398792 1.161319
v 1.321744 11.938229 1.442504
v 1.442141 11.840773 1.466410
v 1.336656 11.817151 1.540904
v 1.632233 12.122698 1.768348
v 1.684433 12.080445 1.778712
v 1.638699 12.070204 1.811010
v -0.489833 6.247992 -0.201428
v 0.812997 6.635783 0.166965
v 0.072126 5.472217 -0.945166
v 1.254744 6.025959 -0.417675
v -0.157533 5.153745 0.202268
v 1.074213 5.775612 0.484305
v 2.084838 7.456415 0.326614
v 2.341258 7.102431 -0.012751
v 2.236466 6.957113 0.510819
v 2.923232 7.928096 1.061959
v 3.100513 7.683362 0.827332
v 3.028062 7.582894 1.189313
v 3.962738 8.054046 1.003798
v 4.039601 7.947938 0.902072
v 4.008189 7.904379 1.059014
v -0.145067 8.255932 -0.426451
v 0.316463 8.800554 -1.142609
v -0.320826 7.790715 -0.985423
v 0.178301 8.434855 -1.582009
v 0.232839 7.677953 -0.714366
v 0.613528 8.346213 -1.368935
v 0.627500 9.587914 -1.815133
v 0.547302 9.375636 -2.070190
v 0.799937 9.324183 -1.946508
v 1.157307 10.136541 -2.175545
v 1.101860 9.989779 -2.351885
v 1.276525 9.954206 -2.266374
v 1.363346 10.414344 -2.821273
v 1.339307 10.350713 -2.897727
v 1.415035 10.335290 -2.860653
vt 0.995206 0.000000
vt 0.947829 0.083222
vt 0.960512 0.006791
vt 0.888920 0.345284
vt 0.933993 0.250559
vt 0.947829 0.347356
vt 0.999280 0.822530
vt 0.975350 0.727221
vt 1.000000 0.737000
vt 0.956814 0.805682
vt 1.000000 0.881826
vt 0.968439 0.887809
vt 0.872309 0.341183
vt 0.872309 0.414656
vt 0.812699 0.368350
vt 0.923855 0.419333
vt 0.898658 0.350646
vt 0.923855 0.347356
vt 0.887409 0.251725
vt 0.924764 0.144177
vt 0.994588 0.067929
vt 0.968064 0.175765
vt 0.597757 0.806719
vt 0.614801 0.741454
vt 0.614801 0.813476
vt 0.929134 0.063747
vt 0.947829 0.063279
vt 0.725922 0.813906
vt 0.710480 0.886529
vt 0.703586 0.822347
vt 0.821995 0.425967
vt 0.812699 0.420982
vt 0.821995 0.414656
vt 0.913693 0.000000
vt 0.872309 0.354545
vt 0.886871 0.413445
vt 0.880558 0.419239
vt 0.811277 0.429156
vt 0.731116 0.551274
vt 0.728480 0.426639
vt 0.820450 0.224286
vt 0.887409 0.341183
vt 0.812699 0.331397
vt 0.795629 0.304510
vt 0.774270 0.173455
vt 0.812699 0.180636
vt 0.728480 0.410904
vt 0.812699 0.426639
vt 0.803963 0.856670
vt 0.803963 0.938910
vt 0.728480 0.907861
vt 0.789547 0.092248
vt 0.860378 0.096805
vt 0.879179 0.231979
vt 0.796201 0.553252
vt 0.753172 0.669005
vt 0.762979 0.087284
vt 0.783085 0.002152
vt 0.863841 0.000000
vt 0.887409 0.003087
vt 0.790952 0.670153
vt 0.785157 0.776408
vt 0.615901 0.823810
vt 0.610370 0.815580
vt 0.615901 0.813476
vt 0.597757 0.580082
vt 0.611313 0.493418
vt 0.616877 0.580082
vt 0.776957 0.856670
vt 0.765633 0.856326
vt 0.045351 0.635801
vt 0.198765 0.876791
vt 0.048365 0.897353
vt 0.508004 0.028637
vt 0.384732 0.248735
vt 0.394873 0.000000
vt 0.252504 0.266211
vt 0.286514 0.549527
vt 0.198765 0.526575
vt 0.384732 0.000000
vt 0.260992 0.014683
vt 0.876693 0.933051
vt 0.811277 0.863690
vt 0.876693 0.791344
vt 0.331830 0.753551
vt 0.497862 0.277372
vt 0.423332 0.512187
vt 0.195751 0.615238
vt 0.000000 0.364578
vt 0.096796 0.320213
vt 0.384732 0.767388
vt 0.327244 0.883020
vt 0.508004 0.525113
vt 0.448481 0.747680
vt 0.140409 0.140197
vt 0.198765 0.113451
vt 0.609129 0.827276
vt 0.609129 0.842509
vt 0.597757 0.831766
vt 0.499527 0.755473
vt 0.476074 0.847949
vt 0.139568 0.006414
vt 0.153562 0.000000
vt 0.599916 0.142944
vt 0.508004 0.030944
vt 0.619326 0.000000
vt 0.728480 0.009215
vt 0.634323 0.127158
vt 0.619326 0.000000
vt 0.707870 0.693459
vt 0.678449 0.567184
vt 0.728066 0.578651
vt 0.619326 0.788776
vt 0.728066 0.813906
vt 0.703586 0.924552
vt 0.619326 0.855300
vt 0.703586 0.813906
vt 0.724355 0.468495
vt 0.720127 0.134402
vt 0.678674 0.270978
vt 0.512407 0.167269
vt 0.589233 0.278701
vt 0.538437 0.292821
vt 0.461792 0.948494
vt 0.493511 0.856149
vt 0.493511 0.963096
vt 0.683690 0.376562
vt 0.649255 0.373655
vt 0.584207 0.396020
vt 0.610370 0.827276
vt 0.597757 0.821859
vt 0.610370 0.813476
vt 0.688856 0.459307
vt 0.572483 0.489186
vt 0.557256 0.493418
vt 0.596232 0.848518
vt 0.617660 0.897030
vt 0.590400 0.904222
vt 0.987039 0.477306
vt 0.959507 0.426639
vt 0.987721 0.428170
vt 0.977837 0.323188
vt 0.968056 0.261103
vt 0.985030 0.263520
vt 0.947829 0.376553
vt 0.985030 0.381849
vt 0.289284 0.886338
vt 0.289284 0.919227
vt 0.259144 0.909429
vt 0.979725 0.216277
vt 0.974847 0.534929
vt 0.964861 0.476103
vt 0.942433 0.347433
vt 0.931649 0.407491
vt 0.923855 0.347356
vt 0.967989 0.214606
vt 0.973768 0.176490
vt 0.975632 0.578044
vt 0.966731 0.577562
vt 0.603837 0.663675
vt 0.606450 0.616145
vt 0.616410 0.660957
vt 0.619055 0.584017
vt 0.616410 0.581204
vt 0.619055 0.580082
vt 0.983105 0.609096
vt 0.979246 0.608887
vt 0.612641 0.580897
vt 0.616410 0.580082
vt 0.508004 0.824306
vt 0.597757 0.742334
vt 0.597757 0.842864
vt 0.874913 0.522370
vt 0.811277 0.473054
vt 0.891764 0.426639
vt 0.944336 0.609445
vt 0.928991 0.531371
vt 0.959507 0.513945
vt 0.891764 0.639465
vt 0.959507 0.689031
vt 0.892629 0.727221
vt 0.461792 0.933497
vt 0.384732 0.913479
vt 0.461792 0.849818
vt 0.897081 0.438687
vt 0.918180 0.426639
vt 0.855038 0.656479
vt 0.811644 0.558855
vt 0.527203 0.727746
vt 0.591572 0.649869
vt 0.615529 0.736968
vt 0.607824 0.664349
vt 0.615529 0.663675
vt 0.862440 0.739131
vt 0.837049 0.753774
vt 0.550618 0.641401
vt 0.552447 0.554366
vt 0.831494 0.425706
vt 0.821995 0.425706
vt 0.825183 0.414656
vt 0.849756 0.791344
vt 0.567442 0.493418
vt 0.579718 0.495956
vt 0.905679 0.919069
vt 0.956815 0.988790
vt 0.891764 0.993222
vt 0.198765 0.962578
vt 0.229235 0.895889
vt 0.229235 0.974728
vt 0.519763 0.893931
vt 0.537147 0.945828
vt 0.512065 0.944375
vt 0.562974 0.846048
vt 0.508004 0.842864
vt 0.259144 0.886338
vt 0.259144 0.940761
vt 0.229235 0.932694
vt 0.526791 1.000000
vt 0.509449 0.998995
vt 0.562974 0.969088
vt 0.581187 0.899289
vt 0.590400 0.981441
vt 0.956814 0.915585
vt 0.909942 0.836282
vt 0.939624 0.834260
vt 0.876693 0.844573
vt 0.889251 0.791344
vt 0.889251 0.844162
vt 0.579394 0.842864
vt 0.590400 0.847821
vt 0.917093 0.779521
vt 0.610370 0.829508
vt 0.616569 0.823810
vt 0.616569 0.830244
vt 0.876693 0.901689
vt 0.886199 0.846347
vt 0.886199 0.905780
vt 0.924361 0.727827
vt 0.933259 0.727221
vt 0.887409 0.424090
vt 0.897724 0.144854
vt 0.995206 0.166888
vt 0.607411 0.738524
vt 0.725922 0.880693
vt 0.905587 0.000203
vt 0.886871 0.341183
vt 0.729425 0.292140
vt 0.826287 0.092339
vt 0.771566 0.000000
vt 0.811277 0.777202
vt 0.603023 0.493418
vt 0.376244 0.251529
vt 0.339930 0.886338
vt 0.488314 0.849818
vt 0.622391 0.673705
vt 0.690051 0.460567
vt 0.728480 0.275183
vt 0.479759 0.849818
vt 0.619326 0.386258
vt 0.703785 0.460567
vt 0.617660 0.842864
vt 0.948593 0.319024
vt 0.987721 0.535627
vt 0.942433 0.407536
vt 0.968679 0.175765
vt 0.597757 0.618024
vt 0.891764 0.635301
vt 0.597757 0.738524
vt 0.524133 0.548512
vt 0.860765 0.784996
vt 0.205283 0.886338
vt 0.562974 0.896434
vt 0.565267 0.892119
vt 0.883806 0.791523
vt 0.896571 0.780918
vt 0.882078 0.844573
vn 0.4415 0.5376 0.7184
vn 0.4460 0.4859 0.7517
vn 0.4302 0.6197 0.6565
vn -0.6551 -0.7368 0.1671
vn -0.6575 -0.7332 0.1733
vn -0.6532 -0.7397 0.1620
vn 0.1319 0.2068 -0.9695
vn 0.1350 0.1818 -0.9740
vn 0.1339 0.1660 -0.9770
vn 0.1325 0.1475 -0.9802
vn 0.9833 -0.1795 0.0287
vn 0.4138 -0.0259 -0.9100
vn -0.8356 -0.5271 0.1545
vn 0.4601 0.3616 0.8109
vn -0.0613 0.3432 -0.9373
vn -0.7945 -0.5851 0.1623
vn 0.1753 0.5857 0.7913
vn 0.1754 0.5857 0.7913
vn -0.7864 0.6150 -0.0583
vn -0.4956 -0.8476 0.1898
vn -0.4956 -0.8476 0.1897
vn 0.3661 0.4466 0.8164
vn 0.0632 0.9962 0.0606
vn -0.8974 -0.4370 -0.0607
vn 0.8203 -0.5319 -0.2103
vn 0.8263 -0.5404 -0.1588
vn 0.0494 -0.1171 0.9919
vn 0.7892 -0.5518 0.2695
vn -0.8550 -0.3733 -0.3600
vn 0.0760 0.9326 0.3527
vn 0.7404 -0.4543 -0.4954
vn -0.8736 -0.3929 -0.2869
vn 0.0527 0.9916 -0.1184
vn -0.0494 0.1171 -0.9919
vn -0.8769 -0.4569 0.1491
vn 0.0697 0.9787 0.1934
vn 0.8660 0.0000 -0.5000
vn -0.0000 -0.0000 1.0000
vn -0.8747 -0.0377 -0.4832
vn -0.9028 -0.0483 -0.4274
vn -0.9154 -0.0535 -0.3990
vn -0.8660 -0.0000 -0.5000
vn 0.0000 -1.0000 -0.0000
vn -0.7267 0.4502 -0.5189
vn 0.0219 0.2227 0.9746
vn 0.0943 0.2437 0.9652
vn -0.0000 0.2161 0.9764
vn 0.8506 -0.0779 -0.5201
vn 0.8105 -0.1153 -0.5742
vn 0.7934 -0.1299 -0.5947
vn -0.9040 0.0268 -0.4267
vn 0.1008 -0.3853 0.9173
vn 0.7313 0.1473 -0.6660
vn -0.0225 0.9213 -0.3883
vn 0.1228 0.2655 0.9563
vn 0.7786 -0.0293 -0.6269
vn 0.3400 0.8899 -0.3042
vn 0.4668 -0.4819 0.7415
vn -0.9099 -0.3013 -0.2850
vn -0.8872 -0.3287 -0.3237
vn 0.5022 -0.4944 -0.7095
vn -0.6139 -0.5136 -0.5994
vn 0.2834 -0.3000 0.9109
vn 0.4790 0.7176 -0.5056
vn -0.9908 -0.1271 -0.0467
vn 0.3328 -0.3491 0.8760
vn 0.2414 0.9555 -0.1694
vn -0.5022 0.4944 0.7095
vn 0.5675 -0.5808 0.5836
vn 0.4067 0.8220 -0.3987
vn 0.5446 0.5093 -0.6664
vn 0.4920 -0.7373 0.4629
vn -0.8971 0.2068 0.3904
vn -0.9135 0.1828 0.3634
vn -0.3583 -0.6150 -0.7024
vn -0.9926 -0.0259 0.1186
vn 0.5658 -0.5271 0.6340
vn 0.4544 0.3616 -0.8141
vn -0.7694 0.3432 0.5388
vn 0.5511 -0.5851 0.5949
vn 0.5854 0.5857 -0.5606
vn 0.3583 0.6150 0.7024
vn 0.4194 -0.8476 0.3251
vn 0.5078 0.4466 -0.7367
vn -0.0015 0.6915 -0.7224
vn 0.4724 -0.8691 -0.1467
vn -0.2812 0.2558 0.9249
vn -0.3291 0.2373 0.9140
vn -0.8848 -0.3721 -0.2804
vn -0.6782 0.0641 0.7321
vn 0.7125 -0.6998 -0.0516
vn -0.2636 0.5612 -0.7846
vn 0.0102 0.3488 0.9371
vn 0.6578 -0.7493 -0.0763
vn 0.1568 0.7403 -0.6537
vn 0.8848 0.3721 0.2804
vn 0.2805 -0.9379 -0.2042
vn -0.1200 0.6404 -0.7586
vn -0.8460 0.5093 -0.1579
vn 0.1700 -0.7373 -0.6539
vn 0.7731 0.2068 0.5996
vn 0.7573 0.1828 0.6270
vn -0.4442 -0.6150 0.6515
vn 0.5805 -0.0259 0.8139
vn 0.2846 -0.5271 -0.8007
vn -0.9323 0.3616 -0.0078
vn 0.8420 0.3432 0.4163
vn 0.2573 -0.5851 -0.7690
vn -0.7728 0.5857 -0.2445
vn 0.4442 0.6150 -0.6515
vn 0.0839 -0.8476 -0.5240
vn -0.8900 0.4466 -0.0918
vn 0.4499 0.3714 0.8122
vn -0.6598 -0.7296 0.1795
vn 0.1366 0.2033 -0.9695
vn -0.8655 -0.0345 -0.4997
vn 0.1229 0.2517 0.9600
vn 0.8643 -0.0637 -0.4990
vn -0.9135 0.1828 0.3633
usemtl Material.012
s 1
f 1/1/1 4/2/2 3/3/3
f 3/4/4 6/5/5 5/6/6
f 2/7/7 9/8/7 7/9/7
f 6/10/8 1/11/9 5/12/10
f 1/13/11 3/14/11 5/15/11
f 7/16/12 12/17/12 10/18/12
f 4/19/13 9/20/13 6/5/13
f 2/21/14 8/22/14 4/2/14
f 12/23/15 13/24/15 10/25/15
f 9/20/16 11/26/16 12/27/16
f 7/28/17 11/29/18 8/30/17
f 14/31/19 13/32/19 15/33/19
f 11/26/20 15/34/21 12/27/20
f 11/35/22 13/36/22 14/37/22
f 16/38/23 19/39/23 18/40/23
f 19/41/24 20/42/24 18/43/24
f 17/44/25 24/45/25 22/46/25
f 20/47/26 17/44/26 16/48/26
f 16/49/27 18/50/27 20/51/27
f 24/45/28 25/52/28 22/46/28
f 19/41/29 24/53/29 21/54/29
f 17/55/30 23/56/30 19/39/30
f 27/57/31 28/58/31 25/52/31
f 24/53/32 26/59/32 27/60/32
f 22/61/33 26/62/33 23/56/33
f 29/63/34 28/64/34 30/65/34
f 26/66/35 30/67/35 27/68/35
f 26/62/36 28/69/36 29/70/36
f 32/71/37 33/72/37 31/73/37
f 33/74/38 36/75/38 35/76/38
f 32/77/39 39/78/40 37/79/41
f 35/80/42 32/77/42 31/81/42
f 31/82/43 33/83/43 35/84/43
f 39/78/44 40/85/44 37/79/44
f 34/86/45 39/87/46 36/75/47
f 34/88/48 37/89/49 38/90/50
f 42/91/51 43/92/51 40/85/51
f 38/93/52 42/94/52 39/87/52
f 38/90/53 40/95/53 41/96/53
f 44/97/54 43/98/54 45/99/54
f 41/100/55 45/101/55 42/94/55
f 41/96/56 43/102/56 44/103/56
f 47/104/57 48/105/57 46/106/57
f 48/107/58 51/108/58 50/109/58
f 47/110/59 54/111/59 52/112/59
f 50/113/60 47/110/60 46/114/60
f 46/115/61 48/116/61 50/117/61
f 54/111/62 55/118/62 52/112/62
f 49/119/63 54/120/63 51/108/63
f 49/121/64 52/122/64 53/123/64
f 57/124/65 58/125/65 55/126/65
f 54/120/66 56/127/66 57/128/66
f 52/122/67 56/129/67 53/123/67
f 59/130/68 58/131/68 60/132/68
f 56/127/69 60/133/69 57/128/69
f 56/129/70 58/134/70 59/135/70
f 62/136/71 63/137/71 61/138/71
f 64/139/72 65/140/72 63/141/72
f 62/142/73 69/143/73 67/144/73
f 65/145/74 62/142/74 61/146/74
f 61/147/75 63/148/75 65/149/75
f 69/143/76 70/150/76 67/144/76
f 64/139/77 69/151/77 66/152/77
f 62/153/78 68/154/78 64/155/78
f 72/156/79 73/157/79 70/150/79
f 69/151/80 71/158/80 72/159/80
f 67/160/81 71/161/81 68/162/81
f 74/163/82 73/164/82 75/165/82
f 72/159/83 74/166/83 75/167/83
f 71/161/84 73/168/84 74/169/84
f 76/170/85 79/171/85 78/172/85
f 79/173/86 80/174/86 78/175/86
f 77/176/87 84/177/87 82/178/87
f 81/179/88 76/180/88 80/181/88
f 76/182/89 78/183/89 80/184/89
f 82/178/90 87/185/90 85/186/90
f 79/173/91 84/187/91 81/188/91
f 77/189/92 83/190/92 79/171/92
f 85/191/93 90/192/93 88/193/93
f 84/187/94 86/194/94 87/195/94
f 82/196/95 86/197/95 83/190/95
f 89/198/96 88/199/96 90/200/96
f 86/194/97 90/201/97 87/195/97
f 86/197/98 88/202/98 89/203/98
f 92/204/99 93/205/99 91/206/99
f 93/207/100 96/208/100 95/209/100
f 92/210/101 99/211/101 97/212/101
f 95/213/102 92/210/102 91/214/102
f 91/215/103 93/216/103 95/217/103
f 97/212/104 102/218/104 100/219/104
f 94/220/105 99/221/105 96/222/105
f 94/223/106 97/224/106 98/225/106
f 102/226/107 103/227/107 100/228/107
f 99/221/108 101/229/108 102/230/108
f 97/224/109 101/231/109 98/225/109
f 104/232/110 103/233/110 105/234/110
f 101/235/111 105/236/111 102/237/111
f 101/231/112 103/238/112 104/239/112
f 1/1/1 2/21/113 4/2/2
f 3/4/4 4/19/114 6/5/5
f 2/7/7 6/10/7 9/8/7
f 6/10/8 2/7/115 1/11/9
f 7/16/12 9/240/12 12/17/12
f 4/19/13 8/241/13 9/20/13
f 2/21/14 7/242/14 8/22/14
f 12/23/15 15/243/15 13/24/15
f 9/20/16 8/241/16 11/26/16
f 7/28/17 10/244/18 11/29/18
f 11/26/20 14/245/21 15/34/21
f 11/35/22 10/246/22 13/36/22
f 16/38/23 17/55/23 19/39/23
f 19/41/24 21/54/24 20/42/24
f 17/44/25 21/247/25 24/45/25
f 20/47/26 21/247/26 17/44/26
f 24/45/28 27/57/28 25/52/28
f 19/41/29 23/248/29 24/53/29
f 17/55/30 22/61/30 23/56/30
f 27/57/31 30/249/31 28/58/31
f 24/53/32 23/248/32 26/59/32
f 22/61/33 25/250/33 26/62/33
f 26/66/35 29/251/35 30/67/35
f 26/62/36 25/250/36 28/69/36
f 32/71/37 34/88/37 33/72/37
f 33/74/38 34/86/38 36/75/38
f 32/77/39 36/252/116 39/78/40
f 35/80/42 36/252/42 32/77/42
f 39/78/44 42/91/44 40/85/44
f 34/86/45 38/93/117 39/87/46
f 34/88/48 32/71/118 37/89/49
f 42/91/51 45/253/51 43/92/51
f 38/93/52 41/100/52 42/94/52
f 38/90/53 37/89/53 40/95/53
f 41/100/55 44/254/55 45/101/55
f 41/96/56 40/95/56 43/102/56
f 47/104/57 49/121/57 48/105/57
f 48/107/58 49/119/58 51/108/58
f 47/110/59 51/255/59 54/111/59
f 50/113/60 51/255/60 47/110/60
f 54/111/62 57/256/62 55/118/62
f 49/119/63 53/257/63 54/120/63
f 49/121/64 47/104/64 52/122/64
f 57/124/65 60/258/65 58/125/65
f 54/120/66 53/257/66 56/127/66
f 52/122/67 55/259/67 56/129/67
f 56/127/69 59/260/69 60/133/69
f 56/129/70 55/259/70 58/134/70
f 62/136/71 64/261/71 63/137/71
f 64/139/72 66/152/72 65/140/72
f 62/142/73 66/262/73 69/143/73
f 65/145/74 66/262/119 62/142/74
f 69/143/76 72/156/76 70/150/76
f 64/139/77 68/263/77 69/151/77
f 62/153/78 67/264/78 68/154/78
f 72/156/79 75/265/79 73/157/79
f 69/151/80 68/263/80 71/158/80
f 67/160/81 70/266/81 71/161/81
f 72/159/83 71/158/83 74/166/83
f 71/161/84 70/266/84 73/168/84
f 76/170/85 77/189/85 79/171/85
f 79/173/86 81/188/86 80/174/86
f 77/176/87 81/179/87 84/177/87
f 81/179/88 77/176/88 76/180/88
f 82/178/90 84/177/90 87/185/90
f 79/173/91 83/267/91 84/187/91
f 77/189/92 82/196/92 83/190/92
f 85/191/93 87/268/93 90/192/93
f 84/187/94 83/267/94 86/194/94
f 82/196/95 85/269/95 86/197/95
f 86/194/97 89/270/97 90/201/97
f 86/197/98 85/269/98 88/202/98
f 92/204/99 94/223/99 93/205/99
f 93/207/100 94/271/100 96/208/100
f 92/210/101 96/272/101 99/211/101
f 95/213/102 96/272/102 92/210/102
f 97/212/104 99/211/104 102/218/104
f 94/220/105 98/273/105 99/221/105
f 94/223/106 92/204/106 97/224/106
f 102/226/107 105/274/107 103/227/107
f 99/221/108 98/273/108 101/229/108
f 97/224/109 100/275/109 101/231/109
f 101/235/111 104/276/111 105/236/111
f 101/231/112 100/275/112 103/238/112
