# Blender v2.79 (sub 0) OBJ File: 'well.blend'
# www.blender.org
mtllib well.mtl
o Cube.001_Cube.003
v 0.441825 0.838857 -0.024689
v 0.441825 0.275031 -0.024689
v 0.441825 0.838857 0.024689
v 0.441825 0.275031 0.024689
v 0.392448 0.838857 -0.024689
v 0.392448 0.275031 -0.024689
v 0.392448 0.838857 0.024689
v 0.392448 0.275031 0.024689
v 0.000000 1.012226 0.426002
v -0.484299 0.829846 0.426002
v 0.000000 1.012226 -0.426002
v -0.484299 0.829846 -0.426002
v 0.484299 0.829846 0.426002
v 0.484299 0.829846 -0.426002
v -0.390235 0.838857 -0.024689
v -0.390235 0.275031 -0.024689
v -0.390235 0.838857 0.024689
v -0.390235 0.275031 0.024689
v -0.439612 0.838857 -0.024689
v -0.439612 0.275031 -0.024689
v -0.439612 0.838857 0.024689
v -0.439612 0.275031 0.024689
v 0.000000 0.000933 -0.493404
v 0.000000 0.370196 -0.493404
v 0.348889 0.000933 -0.348889
v 0.348889 0.370196 -0.348889
v 0.493404 0.000933 0.000000
v 0.493404 0.370196 0.000000
v 0.348889 0.000933 0.348889
v 0.348889 0.370196 0.348889
v -0.000000 0.000933 0.493404
v -0.000000 0.370196 0.493404
v -0.348889 0.000933 0.348889
v -0.348889 0.370196 0.348889
v -0.493404 0.000933 -0.000000
v -0.493404 0.370196 -0.000000
v -0.348889 0.000933 -0.348889
v -0.348889 0.370196 -0.348889
v 0.000000 0.370196 -0.359464
v 0.254179 0.370196 -0.254179
v 0.359464 0.370196 0.000000
v 0.254179 0.370196 0.254179
v -0.000000 0.370196 0.359464
v -0.254180 0.370196 0.254179
v -0.359464 0.370196 -0.000000
v -0.254180 0.370196 -0.254179
v 0.000000 0.124238 -0.359464
v 0.254179 0.124238 -0.254179
v 0.359464 0.124238 0.000000
v 0.254179 0.124238 0.254179
v -0.000000 0.124238 0.359464
v -0.254180 0.124238 0.254179
v -0.359464 0.124238 -0.000000
v -0.254180 0.124238 -0.254179
vt 0.833642 0.632561
vt 0.833642 0.895567
vt 0.811504 0.895567
vt 0.811504 0.632561
vt 0.833642 0.632561
vt 0.833642 0.895567
vt 0.811774 0.895567
vt 0.811774 0.632561
vt 0.811504 0.895567
vt 0.811504 0.632561
vt 0.833642 0.632561
vt 0.833642 0.895567
vt 0.833642 0.632561
vt 0.833642 0.895567
vt 0.811504 0.895567
vt 0.811504 0.632561
vt 0.815496 0.585307
vt 0.793358 0.585307
vt 0.793358 0.562274
vt 0.815496 0.562274
vt 0.793358 0.585307
vt 0.793358 0.562274
vt 0.815496 0.562274
vt 0.815496 0.585307
vt 0.355029 0.938503
vt 0.137897 0.938503
vt 0.137897 0.541071
vt 0.355029 0.541071
vt 0.033548 0.747286
vt 0.115316 0.521377
vt 0.115316 0.973195
vt 0.137897 0.541071
vt 0.355029 0.541071
vt 0.355029 0.938503
vt 0.137897 0.938503
vt 0.033548 0.747286
vt 0.115316 0.521377
vt 0.115316 0.973195
vt 0.381975 0.984072
vt 0.381975 0.532253
vt 0.763966 0.532253
vt 0.763966 0.984072
vt 0.833642 0.632561
vt 0.833642 0.895567
vt 0.811504 0.895567
vt 0.811504 0.632561
vt 0.811774 0.895567
vt 0.811774 0.632561
vt 0.833642 0.632561
vt 0.833642 0.895567
vt 0.811504 0.895567
vt 0.811504 0.632561
vt 0.833642 0.632561
vt 0.833642 0.895567
vt 0.833642 0.632561
vt 0.833642 0.895567
vt 0.811504 0.895567
vt 0.811504 0.632561
vt 0.815496 0.562274
vt 0.815496 0.585307
vt 0.793358 0.585307
vt 0.793358 0.562274
vt 0.793358 0.585307
vt 0.793358 0.562274
vt 0.815496 0.562274
vt 0.815496 0.585307
vt 0.770855 0.183325
vt 0.770855 0.011076
vt 0.927278 0.011076
vt 0.927278 0.183325
vt 0.770855 0.183325
vt 0.927278 0.183325
vt 0.927278 0.355574
vt 0.770856 0.355574
vt 0.770855 0.183325
vt 0.770855 0.011076
vt 0.927278 0.011076
vt 0.770856 0.355574
vt 0.770856 0.183325
vt 0.927278 0.183325
vt 0.927278 0.355574
vt 0.770855 0.011076
vt 0.927278 0.011076
vt 0.770856 0.183325
vt 0.927278 0.183325
vt 0.927278 0.355574
vt 0.770856 0.355574
vt 0.081977 0.252990
vt 0.142028 0.252990
vt 0.189232 0.371556
vt 0.146770 0.415735
vt 0.770855 0.011076
vt 0.927278 0.011076
vt 0.927278 0.183325
vt 0.770855 0.183325
vt 0.770856 0.355574
vt 0.927278 0.355574
vt 0.430962 0.044331
vt 0.600273 0.044331
vt 0.719993 0.168891
vt 0.721076 0.348220
vt 0.600851 0.473304
vt 0.430828 0.473304
vt 0.310603 0.348220
vt 0.310603 0.171324
vt 0.702946 0.498581
vt 0.702946 0.388307
vt 0.818610 0.388307
vt 0.818610 0.498581
vt 0.146770 0.415735
vt 0.189232 0.371556
vt 0.303192 0.420668
vt 0.303192 0.483146
vt 0.303192 0.022833
vt 0.303192 0.085312
vt 0.189232 0.134423
vt 0.146770 0.090244
vt 0.146770 0.090244
vt 0.189232 0.134423
vt 0.081977 0.252990
vt 0.142028 0.252990
vt 0.303192 0.420668
vt 0.303192 0.483146
vt 0.303192 0.022833
vt 0.303192 0.085312
vt 0.600851 0.473304
vt 0.430828 0.473304
vt 0.310603 0.348220
vt 0.310603 0.171324
vt 0.430962 0.044331
vt 0.600273 0.044331
vt 0.719993 0.168891
vt 0.721076 0.348220
vt 0.937177 0.388307
vt 0.937177 0.498580
vt 0.702946 0.498581
vt 0.702946 0.388307
vt 0.818610 0.388307
vt 0.818610 0.498581
vt 0.818610 0.388307
vt 0.818611 0.498581
vt 0.702946 0.498581
vt 0.702946 0.388307
vt 0.702946 0.498581
vt 0.702946 0.388307
vt 0.818610 0.388307
vt 0.818610 0.498581
vt 0.818610 0.498581
vt 0.818610 0.388307
vt 0.937177 0.388307
vt 0.937177 0.498581
vt 0.937177 0.388307
vt 0.937177 0.498580
vt 0.818610 0.498581
vt 0.818610 0.388307
vt 0.937177 0.388307
vt 0.937177 0.498581
vn -1.0000 0.0000 0.0000
vn 0.0000 0.0000 -1.0000
vn 1.0000 0.0000 0.0000
vn 0.0000 0.0000 1.0000
vn 0.0000 -1.0000 0.0000
vn 0.0000 1.0000 0.0000
vn 0.3524 -0.9358 0.0000
vn -0.3524 -0.9358 0.0000
vn -0.3827 0.0000 0.9239
vn -0.9239 0.0000 0.3827
vn -0.9239 0.0000 -0.3827
vn -0.3827 0.0000 -0.9239
vn 0.3827 0.0000 -0.9239
vn 0.9239 0.0000 -0.3827
vn 0.9239 0.0000 0.3827
vn 0.3827 0.0000 0.9239
usemtl Material.001
s off
f 1/1/1 2/2/1 4/3/1 3/4/1
f 3/5/2 4/6/2 8/7/2 7/8/2
f 7/9/3 8/10/3 6/11/3 5/12/3
f 5/13/4 6/14/4 2/15/4 1/16/4
f 3/17/5 7/18/5 5/19/5 1/20/5
f 8/21/6 4/22/6 2/23/6 6/24/6
f 9/25/7 10/26/7 12/27/7 11/28/7
f 11/29/4 12/30/4 14/31/4
f 11/32/8 14/33/8 13/34/8 9/35/8
f 9/36/2 13/37/2 10/38/2
f 14/39/6 12/40/6 10/41/6 13/42/6
f 15/43/1 16/44/1 18/45/1 17/46/1
f 17/47/2 18/48/2 22/49/2 21/50/2
f 21/51/3 22/52/3 20/53/3 19/54/3
f 19/55/4 20/56/4 16/57/4 15/58/4
f 17/59/5 21/60/5 19/61/5 15/62/5
f 22/63/6 18/64/6 16/65/6 20/66/6
f 23/67/9 25/68/9 26/69/9 24/70/9
f 25/71/10 27/72/10 28/73/10 26/74/10
f 27/72/11 29/75/11 30/76/11 28/77/11
f 29/78/12 31/79/12 32/80/12 30/81/12
f 31/79/13 33/82/13 34/83/13 32/80/13
f 33/84/14 35/85/14 36/86/14 34/87/14
f 32/88/5 43/89/5 42/90/5 30/91/5
f 35/92/15 37/93/15 38/94/15 36/95/15
f 37/96/16 23/67/16 24/70/16 38/97/16
f 23/98/6 37/99/6 35/100/6 33/101/6 31/102/6 29/103/6 27/104/6 25/105/6
f 40/106/13 48/107/13 47/108/13 39/109/13
f 38/110/5 46/111/5 45/112/5 36/113/5
f 28/114/5 41/115/5 40/116/5 26/117/5
f 34/118/5 44/119/5 43/89/5 32/88/5
f 24/120/5 39/121/5 46/111/5 38/110/5
f 26/117/5 40/116/5 39/121/5 24/120/5
f 30/91/5 42/90/5 41/122/5 28/123/5
f 36/124/5 45/125/5 44/119/5 34/118/5
f 48/126/5 49/127/5 50/128/5 51/129/5 52/130/5 53/131/5 54/132/5 47/133/5
f 39/109/12 47/108/12 54/134/12 46/135/12
f 45/136/10 53/137/10 52/138/10 44/139/10
f 43/140/16 51/141/16 50/142/16 42/143/16
f 41/144/14 49/145/14 48/146/14 40/147/14
f 46/148/11 54/149/11 53/150/11 45/151/11
f 44/152/9 52/153/9 51/141/9 43/140/9
f 42/154/15 50/155/15 49/156/15 41/157/15
